<mxfile host="Electron" agent="Mozilla/5.0 (Windows NT 10.0; Win64; x64) AppleWebKit/537.36 (KHTML, like Gecko) draw.io/24.7.8 Chrome/128.0.6613.36 Electron/32.0.1 Safari/537.36" version="24.7.8">
  <diagram name="Page-1" id="Hnuxy9WTokqF3hQceNNW">
    <mxGraphModel dx="4887" dy="1898" grid="1" gridSize="10" guides="1" tooltips="1" connect="1" arrows="1" fold="1" page="1" pageScale="1" pageWidth="850" pageHeight="1100" math="0" shadow="0">
      <root>
        <mxCell id="0" />
        <mxCell id="1" parent="0" />
        <mxCell id="SpzhhlRtr5FzsRfU33CU-98" value="Back" style="points=[[0,0],[0.25,0],[0.5,0],[0.75,0],[1,0],[1,0.25],[1,0.5],[1,0.75],[1,1],[0.75,1],[0.5,1],[0.25,1],[0,1],[0,0.75],[0,0.5],[0,0.25]];outlineConnect=0;gradientColor=none;html=1;whiteSpace=wrap;fontSize=12;fontStyle=0;container=1;pointerEvents=0;collapsible=0;recursiveResize=0;shape=mxgraph.aws4.group;grIcon=mxgraph.aws4.group_vpc2;strokeColor=#8C4FFF;fillColor=none;verticalAlign=top;align=left;spacingLeft=30;fontColor=#AAB7B8;dashed=0;" vertex="1" parent="1">
          <mxGeometry x="-530" y="680" width="1629.5" height="1260" as="geometry" />
        </mxCell>
        <mxCell id="SpzhhlRtr5FzsRfU33CU-99" value="Availability zone" style="sketch=0;outlineConnect=0;gradientColor=none;html=1;whiteSpace=wrap;fontSize=12;fontStyle=0;shape=mxgraph.aws4.group;grIcon=mxgraph.aws4.group_availability_zone;strokeColor=#545B64;fillColor=none;verticalAlign=top;align=left;spacingLeft=30;fontColor=#545B64;dashed=1;" vertex="1" parent="SpzhhlRtr5FzsRfU33CU-98">
          <mxGeometry x="280" y="230" width="1279.5" height="320" as="geometry" />
        </mxCell>
        <mxCell id="SpzhhlRtr5FzsRfU33CU-139" value="Availability zone" style="sketch=0;outlineConnect=0;gradientColor=none;html=1;whiteSpace=wrap;fontSize=12;fontStyle=0;shape=mxgraph.aws4.group;grIcon=mxgraph.aws4.group_availability_zone;strokeColor=#545B64;fillColor=none;verticalAlign=top;align=left;spacingLeft=30;fontColor=#545B64;dashed=1;" vertex="1" parent="SpzhhlRtr5FzsRfU33CU-98">
          <mxGeometry x="280" y="560" width="1279.5" height="320" as="geometry" />
        </mxCell>
        <mxCell id="SpzhhlRtr5FzsRfU33CU-140" value="Availability zone" style="sketch=0;outlineConnect=0;gradientColor=none;html=1;whiteSpace=wrap;fontSize=12;fontStyle=0;shape=mxgraph.aws4.group;grIcon=mxgraph.aws4.group_availability_zone;strokeColor=#545B64;fillColor=none;verticalAlign=top;align=left;spacingLeft=30;fontColor=#545B64;dashed=1;" vertex="1" parent="SpzhhlRtr5FzsRfU33CU-98">
          <mxGeometry x="280" y="900" width="1279.5" height="320" as="geometry" />
        </mxCell>
        <mxCell id="SpzhhlRtr5FzsRfU33CU-229" style="edgeStyle=orthogonalEdgeStyle;rounded=0;orthogonalLoop=1;jettySize=auto;html=1;fillColor=#0050ef;strokeColor=#001DBC;" edge="1" parent="SpzhhlRtr5FzsRfU33CU-98" source="SpzhhlRtr5FzsRfU33CU-146" target="SpzhhlRtr5FzsRfU33CU-148">
          <mxGeometry relative="1" as="geometry">
            <Array as="points">
              <mxPoint x="910" y="480" />
              <mxPoint x="910" y="480" />
            </Array>
          </mxGeometry>
        </mxCell>
        <mxCell id="SpzhhlRtr5FzsRfU33CU-146" value="Subnet" style="sketch=0;outlineConnect=0;gradientColor=none;html=1;whiteSpace=wrap;fontSize=12;fontStyle=0;shape=mxgraph.aws4.group;grIcon=mxgraph.aws4.group_subnet;strokeColor=#879196;fillColor=none;verticalAlign=top;align=left;spacingLeft=30;fontColor=#879196;dashed=0;" vertex="1" parent="SpzhhlRtr5FzsRfU33CU-98">
          <mxGeometry x="324" y="270" width="475.5" height="240" as="geometry" />
        </mxCell>
        <mxCell id="SpzhhlRtr5FzsRfU33CU-184" style="edgeStyle=orthogonalEdgeStyle;rounded=0;orthogonalLoop=1;jettySize=auto;html=1;fillColor=#d5e8d4;strokeColor=#82b366;" edge="1" parent="SpzhhlRtr5FzsRfU33CU-98" source="SpzhhlRtr5FzsRfU33CU-148" target="SpzhhlRtr5FzsRfU33CU-153">
          <mxGeometry relative="1" as="geometry" />
        </mxCell>
        <mxCell id="SpzhhlRtr5FzsRfU33CU-148" value="Subnet" style="sketch=0;outlineConnect=0;gradientColor=none;html=1;whiteSpace=wrap;fontSize=12;fontStyle=0;shape=mxgraph.aws4.group;grIcon=mxgraph.aws4.group_subnet;strokeColor=#879196;fillColor=none;verticalAlign=top;align=left;spacingLeft=30;fontColor=#879196;dashed=0;" vertex="1" parent="SpzhhlRtr5FzsRfU33CU-98">
          <mxGeometry x="1020" y="270" width="475.5" height="240" as="geometry" />
        </mxCell>
        <mxCell id="SpzhhlRtr5FzsRfU33CU-149" value="Subnet" style="sketch=0;outlineConnect=0;gradientColor=none;html=1;whiteSpace=wrap;fontSize=12;fontStyle=0;shape=mxgraph.aws4.group;grIcon=mxgraph.aws4.group_subnet;strokeColor=#879196;fillColor=none;verticalAlign=top;align=left;spacingLeft=30;fontColor=#879196;dashed=0;" vertex="1" parent="SpzhhlRtr5FzsRfU33CU-98">
          <mxGeometry x="310" y="610" width="475.5" height="240" as="geometry" />
        </mxCell>
        <mxCell id="SpzhhlRtr5FzsRfU33CU-150" value="Subnet" style="sketch=0;outlineConnect=0;gradientColor=none;html=1;whiteSpace=wrap;fontSize=12;fontStyle=0;shape=mxgraph.aws4.group;grIcon=mxgraph.aws4.group_subnet;strokeColor=#879196;fillColor=none;verticalAlign=top;align=left;spacingLeft=30;fontColor=#879196;dashed=0;" vertex="1" parent="SpzhhlRtr5FzsRfU33CU-98">
          <mxGeometry x="1020" y="600" width="475.5" height="240" as="geometry" />
        </mxCell>
        <mxCell id="SpzhhlRtr5FzsRfU33CU-151" value="Subnet" style="sketch=0;outlineConnect=0;gradientColor=none;html=1;whiteSpace=wrap;fontSize=12;fontStyle=0;shape=mxgraph.aws4.group;grIcon=mxgraph.aws4.group_subnet;strokeColor=#879196;fillColor=none;verticalAlign=top;align=left;spacingLeft=30;fontColor=#879196;dashed=0;" vertex="1" parent="SpzhhlRtr5FzsRfU33CU-98">
          <mxGeometry x="310" y="950" width="475.5" height="240" as="geometry" />
        </mxCell>
        <mxCell id="SpzhhlRtr5FzsRfU33CU-186" style="edgeStyle=orthogonalEdgeStyle;rounded=0;orthogonalLoop=1;jettySize=auto;html=1;fillColor=#d5e8d4;strokeColor=#82b366;" edge="1" parent="SpzhhlRtr5FzsRfU33CU-98" source="SpzhhlRtr5FzsRfU33CU-152" target="SpzhhlRtr5FzsRfU33CU-153">
          <mxGeometry relative="1" as="geometry" />
        </mxCell>
        <mxCell id="SpzhhlRtr5FzsRfU33CU-152" value="Subnet" style="sketch=0;outlineConnect=0;gradientColor=none;html=1;whiteSpace=wrap;fontSize=12;fontStyle=0;shape=mxgraph.aws4.group;grIcon=mxgraph.aws4.group_subnet;strokeColor=#879196;fillColor=none;verticalAlign=top;align=left;spacingLeft=30;fontColor=#879196;dashed=0;" vertex="1" parent="SpzhhlRtr5FzsRfU33CU-98">
          <mxGeometry x="1020" y="950" width="475.5" height="240" as="geometry" />
        </mxCell>
        <mxCell id="SpzhhlRtr5FzsRfU33CU-246" style="edgeStyle=orthogonalEdgeStyle;rounded=0;orthogonalLoop=1;jettySize=auto;html=1;" edge="1" parent="SpzhhlRtr5FzsRfU33CU-98" source="SpzhhlRtr5FzsRfU33CU-153">
          <mxGeometry relative="1" as="geometry">
            <mxPoint x="1040" y="-30" as="targetPoint" />
          </mxGeometry>
        </mxCell>
        <mxCell id="SpzhhlRtr5FzsRfU33CU-277" style="edgeStyle=orthogonalEdgeStyle;rounded=0;orthogonalLoop=1;jettySize=auto;html=1;" edge="1" parent="SpzhhlRtr5FzsRfU33CU-98" source="SpzhhlRtr5FzsRfU33CU-153">
          <mxGeometry relative="1" as="geometry">
            <mxPoint x="730" y="-30" as="targetPoint" />
          </mxGeometry>
        </mxCell>
        <mxCell id="SpzhhlRtr5FzsRfU33CU-281" style="edgeStyle=orthogonalEdgeStyle;rounded=0;orthogonalLoop=1;jettySize=auto;html=1;" edge="1" parent="SpzhhlRtr5FzsRfU33CU-98" source="SpzhhlRtr5FzsRfU33CU-153">
          <mxGeometry relative="1" as="geometry">
            <mxPoint x="884.5" y="-40" as="targetPoint" />
          </mxGeometry>
        </mxCell>
        <mxCell id="SpzhhlRtr5FzsRfU33CU-153" value="Internet&lt;br&gt;Gateway&lt;div&gt;&lt;br&gt;&lt;/div&gt;" style="outlineConnect=0;dashed=0;verticalLabelPosition=bottom;verticalAlign=top;align=center;html=1;shape=mxgraph.aws3.internet_gateway;fillColor=#F58534;gradientColor=none;" vertex="1" parent="SpzhhlRtr5FzsRfU33CU-98">
          <mxGeometry x="850" y="50" width="69" height="72" as="geometry" />
        </mxCell>
        <mxCell id="SpzhhlRtr5FzsRfU33CU-154" value="Private&lt;div&gt;Subnet&lt;/div&gt;" style="rounded=1;whiteSpace=wrap;html=1;fillColor=#dae8fc;strokeColor=#6c8ebf;" vertex="1" parent="SpzhhlRtr5FzsRfU33CU-98">
          <mxGeometry x="324" y="270" width="90" height="30" as="geometry" />
        </mxCell>
        <mxCell id="SpzhhlRtr5FzsRfU33CU-155" value="Private&lt;div&gt;Subnet&lt;/div&gt;" style="rounded=1;whiteSpace=wrap;html=1;fillColor=#dae8fc;strokeColor=#6c8ebf;" vertex="1" parent="SpzhhlRtr5FzsRfU33CU-98">
          <mxGeometry x="310" y="610" width="90" height="30" as="geometry" />
        </mxCell>
        <mxCell id="SpzhhlRtr5FzsRfU33CU-156" value="Private&lt;div&gt;Subnet&lt;/div&gt;" style="rounded=1;whiteSpace=wrap;html=1;fillColor=#dae8fc;strokeColor=#6c8ebf;" vertex="1" parent="SpzhhlRtr5FzsRfU33CU-98">
          <mxGeometry x="310" y="950" width="90" height="30" as="geometry" />
        </mxCell>
        <mxCell id="SpzhhlRtr5FzsRfU33CU-177" value="Public&amp;nbsp;&lt;div&gt;Subnet&lt;/div&gt;" style="rounded=1;whiteSpace=wrap;html=1;fillColor=#fff2cc;strokeColor=#d6b656;" vertex="1" parent="SpzhhlRtr5FzsRfU33CU-98">
          <mxGeometry x="1020" y="270" width="90" height="30" as="geometry" />
        </mxCell>
        <mxCell id="SpzhhlRtr5FzsRfU33CU-179" value="Public&amp;nbsp;&lt;div&gt;Subnet&lt;/div&gt;" style="rounded=1;whiteSpace=wrap;html=1;fillColor=#fff2cc;strokeColor=#d6b656;" vertex="1" parent="SpzhhlRtr5FzsRfU33CU-98">
          <mxGeometry x="1020" y="600" width="90" height="30" as="geometry" />
        </mxCell>
        <mxCell id="SpzhhlRtr5FzsRfU33CU-178" value="Public&amp;nbsp;&lt;div&gt;Subnet&lt;/div&gt;" style="rounded=1;whiteSpace=wrap;html=1;fillColor=#fff2cc;strokeColor=#d6b656;" vertex="1" parent="SpzhhlRtr5FzsRfU33CU-98">
          <mxGeometry x="1020" y="950" width="90" height="30" as="geometry" />
        </mxCell>
        <mxCell id="SpzhhlRtr5FzsRfU33CU-181" style="edgeStyle=orthogonalEdgeStyle;rounded=0;orthogonalLoop=1;jettySize=auto;html=1;" edge="1" parent="SpzhhlRtr5FzsRfU33CU-98" source="SpzhhlRtr5FzsRfU33CU-180" target="SpzhhlRtr5FzsRfU33CU-146">
          <mxGeometry relative="1" as="geometry">
            <Array as="points">
              <mxPoint x="114" y="370" />
            </Array>
          </mxGeometry>
        </mxCell>
        <mxCell id="SpzhhlRtr5FzsRfU33CU-182" style="edgeStyle=orthogonalEdgeStyle;rounded=0;orthogonalLoop=1;jettySize=auto;html=1;" edge="1" parent="SpzhhlRtr5FzsRfU33CU-98" source="SpzhhlRtr5FzsRfU33CU-180" target="SpzhhlRtr5FzsRfU33CU-149">
          <mxGeometry relative="1" as="geometry">
            <Array as="points">
              <mxPoint x="280" y="716" />
              <mxPoint x="280" y="716" />
            </Array>
          </mxGeometry>
        </mxCell>
        <mxCell id="SpzhhlRtr5FzsRfU33CU-183" style="edgeStyle=orthogonalEdgeStyle;rounded=0;orthogonalLoop=1;jettySize=auto;html=1;" edge="1" parent="SpzhhlRtr5FzsRfU33CU-98" source="SpzhhlRtr5FzsRfU33CU-180" target="SpzhhlRtr5FzsRfU33CU-151">
          <mxGeometry relative="1" as="geometry">
            <Array as="points">
              <mxPoint x="114" y="1080" />
            </Array>
          </mxGeometry>
        </mxCell>
        <mxCell id="SpzhhlRtr5FzsRfU33CU-180" value="Application&lt;div&gt;Load&lt;/div&gt;&lt;div&gt;Balancer&lt;/div&gt;" style="outlineConnect=0;dashed=0;verticalLabelPosition=bottom;verticalAlign=top;align=center;html=1;shape=mxgraph.aws3.application_load_balancer;fillColor=#F58534;gradientColor=none;" vertex="1" parent="SpzhhlRtr5FzsRfU33CU-98">
          <mxGeometry x="80" y="680" width="69" height="72" as="geometry" />
        </mxCell>
        <mxCell id="SpzhhlRtr5FzsRfU33CU-185" style="edgeStyle=orthogonalEdgeStyle;rounded=0;orthogonalLoop=1;jettySize=auto;html=1;entryX=0.5;entryY=1;entryDx=0;entryDy=0;entryPerimeter=0;fillColor=#d5e8d4;strokeColor=#82b366;" edge="1" parent="SpzhhlRtr5FzsRfU33CU-98" source="SpzhhlRtr5FzsRfU33CU-150" target="SpzhhlRtr5FzsRfU33CU-153">
          <mxGeometry relative="1" as="geometry" />
        </mxCell>
        <mxCell id="SpzhhlRtr5FzsRfU33CU-187" value="NAT&lt;div&gt;&lt;br&gt;&lt;/div&gt;" style="outlineConnect=0;dashed=0;verticalLabelPosition=bottom;verticalAlign=top;align=center;html=1;shape=mxgraph.aws3.vpc_nat_gateway;fillColor=#F58534;gradientColor=none;" vertex="1" parent="SpzhhlRtr5FzsRfU33CU-98">
          <mxGeometry x="1000" y="1035" width="69" height="72" as="geometry" />
        </mxCell>
        <mxCell id="SpzhhlRtr5FzsRfU33CU-188" value="NAT&lt;div&gt;&lt;br&gt;&lt;/div&gt;" style="outlineConnect=0;dashed=0;verticalLabelPosition=bottom;verticalAlign=top;align=center;html=1;shape=mxgraph.aws3.vpc_nat_gateway;fillColor=#F58534;gradientColor=none;" vertex="1" parent="SpzhhlRtr5FzsRfU33CU-98">
          <mxGeometry x="990" y="680" width="69" height="72" as="geometry" />
        </mxCell>
        <mxCell id="SpzhhlRtr5FzsRfU33CU-215" value="NAT&lt;div&gt;&lt;br&gt;&lt;/div&gt;" style="outlineConnect=0;dashed=0;verticalLabelPosition=bottom;verticalAlign=top;align=center;html=1;shape=mxgraph.aws3.vpc_nat_gateway;fillColor=#F58534;gradientColor=none;" vertex="1" parent="SpzhhlRtr5FzsRfU33CU-98">
          <mxGeometry x="990" y="354" width="69" height="72" as="geometry" />
        </mxCell>
        <mxCell id="SpzhhlRtr5FzsRfU33CU-231" style="edgeStyle=orthogonalEdgeStyle;rounded=0;orthogonalLoop=1;jettySize=auto;html=1;fillColor=#0050ef;strokeColor=#001DBC;" edge="1" parent="SpzhhlRtr5FzsRfU33CU-98" target="SpzhhlRtr5FzsRfU33CU-150">
          <mxGeometry relative="1" as="geometry">
            <mxPoint x="790" y="816" as="sourcePoint" />
            <mxPoint x="1010" y="816" as="targetPoint" />
            <Array as="points">
              <mxPoint x="980" y="816" />
              <mxPoint x="980" y="816" />
            </Array>
          </mxGeometry>
        </mxCell>
        <mxCell id="SpzhhlRtr5FzsRfU33CU-232" style="edgeStyle=orthogonalEdgeStyle;rounded=0;orthogonalLoop=1;jettySize=auto;html=1;fillColor=#0050ef;strokeColor=#001DBC;" edge="1" parent="SpzhhlRtr5FzsRfU33CU-98">
          <mxGeometry relative="1" as="geometry">
            <mxPoint x="790" y="1160" as="sourcePoint" />
            <mxPoint x="1020" y="1160" as="targetPoint" />
            <Array as="points">
              <mxPoint x="980" y="1160" />
              <mxPoint x="980" y="1160" />
            </Array>
          </mxGeometry>
        </mxCell>
        <mxCell id="SpzhhlRtr5FzsRfU33CU-233" value="Route&lt;div&gt;Tables&lt;/div&gt;" style="outlineConnect=0;dashed=0;verticalLabelPosition=bottom;verticalAlign=top;align=center;html=1;shape=mxgraph.aws3.route_table;fillColor=#F58536;gradientColor=none;" vertex="1" parent="SpzhhlRtr5FzsRfU33CU-98">
          <mxGeometry x="910" y="1130" width="75" height="69" as="geometry" />
        </mxCell>
        <mxCell id="SpzhhlRtr5FzsRfU33CU-248" value="Backend A" style="sketch=0;points=[[0,0,0],[0.25,0,0],[0.5,0,0],[0.75,0,0],[1,0,0],[0,1,0],[0.25,1,0],[0.5,1,0],[0.75,1,0],[1,1,0],[0,0.25,0],[0,0.5,0],[0,0.75,0],[1,0.25,0],[1,0.5,0],[1,0.75,0]];outlineConnect=0;fontColor=#232F3E;fillColor=#ED7100;strokeColor=#ffffff;dashed=0;verticalLabelPosition=bottom;verticalAlign=top;align=center;html=1;fontSize=12;fontStyle=0;aspect=fixed;shape=mxgraph.aws4.resourceIcon;resIcon=mxgraph.aws4.fargate;" vertex="1" parent="SpzhhlRtr5FzsRfU33CU-98">
          <mxGeometry x="500" y="300" width="78" height="78" as="geometry" />
        </mxCell>
        <mxCell id="SpzhhlRtr5FzsRfU33CU-249" value="Bckend B" style="sketch=0;points=[[0,0,0],[0.25,0,0],[0.5,0,0],[0.75,0,0],[1,0,0],[0,1,0],[0.25,1,0],[0.5,1,0],[0.75,1,0],[1,1,0],[0,0.25,0],[0,0.5,0],[0,0.75,0],[1,0.25,0],[1,0.5,0],[1,0.75,0]];outlineConnect=0;fontColor=#232F3E;fillColor=#ED7100;strokeColor=#ffffff;dashed=0;verticalLabelPosition=bottom;verticalAlign=top;align=center;html=1;fontSize=12;fontStyle=0;aspect=fixed;shape=mxgraph.aws4.resourceIcon;resIcon=mxgraph.aws4.fargate;" vertex="1" parent="SpzhhlRtr5FzsRfU33CU-98">
          <mxGeometry x="370" y="390" width="78" height="78" as="geometry" />
        </mxCell>
        <mxCell id="SpzhhlRtr5FzsRfU33CU-251" value="Bakcend A" style="sketch=0;points=[[0,0,0],[0.25,0,0],[0.5,0,0],[0.75,0,0],[1,0,0],[0,1,0],[0.25,1,0],[0.5,1,0],[0.75,1,0],[1,1,0],[0,0.25,0],[0,0.5,0],[0,0.75,0],[1,0.25,0],[1,0.5,0],[1,0.75,0]];outlineConnect=0;fontColor=#232F3E;fillColor=#ED7100;strokeColor=#ffffff;dashed=0;verticalLabelPosition=bottom;verticalAlign=top;align=center;html=1;fontSize=12;fontStyle=0;aspect=fixed;shape=mxgraph.aws4.resourceIcon;resIcon=mxgraph.aws4.fargate;" vertex="1" parent="SpzhhlRtr5FzsRfU33CU-98">
          <mxGeometry x="500" y="630" width="78" height="78" as="geometry" />
        </mxCell>
        <mxCell id="SpzhhlRtr5FzsRfU33CU-252" value="Bckend B" style="sketch=0;points=[[0,0,0],[0.25,0,0],[0.5,0,0],[0.75,0,0],[1,0,0],[0,1,0],[0.25,1,0],[0.5,1,0],[0.75,1,0],[1,1,0],[0,0.25,0],[0,0.5,0],[0,0.75,0],[1,0.25,0],[1,0.5,0],[1,0.75,0]];outlineConnect=0;fontColor=#232F3E;fillColor=#ED7100;strokeColor=#ffffff;dashed=0;verticalLabelPosition=bottom;verticalAlign=top;align=center;html=1;fontSize=12;fontStyle=0;aspect=fixed;shape=mxgraph.aws4.resourceIcon;resIcon=mxgraph.aws4.fargate;" vertex="1" parent="SpzhhlRtr5FzsRfU33CU-98">
          <mxGeometry x="370" y="732" width="78" height="78" as="geometry" />
        </mxCell>
        <mxCell id="SpzhhlRtr5FzsRfU33CU-253" value="Backend A" style="sketch=0;points=[[0,0,0],[0.25,0,0],[0.5,0,0],[0.75,0,0],[1,0,0],[0,1,0],[0.25,1,0],[0.5,1,0],[0.75,1,0],[1,1,0],[0,0.25,0],[0,0.5,0],[0,0.75,0],[1,0.25,0],[1,0.5,0],[1,0.75,0]];outlineConnect=0;fontColor=#232F3E;fillColor=#ED7100;strokeColor=#ffffff;dashed=0;verticalLabelPosition=bottom;verticalAlign=top;align=center;html=1;fontSize=12;fontStyle=0;aspect=fixed;shape=mxgraph.aws4.resourceIcon;resIcon=mxgraph.aws4.fargate;" vertex="1" parent="SpzhhlRtr5FzsRfU33CU-98">
          <mxGeometry x="500" y="970" width="78" height="78" as="geometry" />
        </mxCell>
        <mxCell id="SpzhhlRtr5FzsRfU33CU-254" value="Bckend B" style="sketch=0;points=[[0,0,0],[0.25,0,0],[0.5,0,0],[0.75,0,0],[1,0,0],[0,1,0],[0.25,1,0],[0.5,1,0],[0.75,1,0],[1,1,0],[0,0.25,0],[0,0.5,0],[0,0.75,0],[1,0.25,0],[1,0.5,0],[1,0.75,0]];outlineConnect=0;fontColor=#232F3E;fillColor=#ED7100;strokeColor=#ffffff;dashed=0;verticalLabelPosition=bottom;verticalAlign=top;align=center;html=1;fontSize=12;fontStyle=0;aspect=fixed;shape=mxgraph.aws4.resourceIcon;resIcon=mxgraph.aws4.fargate;" vertex="1" parent="SpzhhlRtr5FzsRfU33CU-98">
          <mxGeometry x="370" y="1070" width="78" height="78" as="geometry" />
        </mxCell>
        <mxCell id="SpzhhlRtr5FzsRfU33CU-255" value="NextJs&lt;div&gt;Fargare&lt;/div&gt;" style="sketch=0;points=[[0,0,0],[0.25,0,0],[0.5,0,0],[0.75,0,0],[1,0,0],[0,1,0],[0.25,1,0],[0.5,1,0],[0.75,1,0],[1,1,0],[0,0.25,0],[0,0.5,0],[0,0.75,0],[1,0.25,0],[1,0.5,0],[1,0.75,0]];outlineConnect=0;fontColor=#232F3E;fillColor=#ED7100;strokeColor=#ffffff;dashed=0;verticalLabelPosition=bottom;verticalAlign=top;align=center;html=1;fontSize=12;fontStyle=0;aspect=fixed;shape=mxgraph.aws4.resourceIcon;resIcon=mxgraph.aws4.fargate;" vertex="1" parent="SpzhhlRtr5FzsRfU33CU-98">
          <mxGeometry x="630" y="1021" width="78" height="78" as="geometry" />
        </mxCell>
        <mxCell id="SpzhhlRtr5FzsRfU33CU-256" value="NextJs&lt;div&gt;Fargare&lt;/div&gt;" style="sketch=0;points=[[0,0,0],[0.25,0,0],[0.5,0,0],[0.75,0,0],[1,0,0],[0,1,0],[0.25,1,0],[0.5,1,0],[0.75,1,0],[1,1,0],[0,0.25,0],[0,0.5,0],[0,0.75,0],[1,0.25,0],[1,0.5,0],[1,0.75,0]];outlineConnect=0;fontColor=#232F3E;fillColor=#ED7100;strokeColor=#ffffff;dashed=0;verticalLabelPosition=bottom;verticalAlign=top;align=center;html=1;fontSize=12;fontStyle=0;aspect=fixed;shape=mxgraph.aws4.resourceIcon;resIcon=mxgraph.aws4.fargate;" vertex="1" parent="SpzhhlRtr5FzsRfU33CU-98">
          <mxGeometry x="630" y="691" width="78" height="78" as="geometry" />
        </mxCell>
        <mxCell id="SpzhhlRtr5FzsRfU33CU-257" value="NextJs&lt;div&gt;Fargare&lt;/div&gt;" style="sketch=0;points=[[0,0,0],[0.25,0,0],[0.5,0,0],[0.75,0,0],[1,0,0],[0,1,0],[0.25,1,0],[0.5,1,0],[0.75,1,0],[1,1,0],[0,0.25,0],[0,0.5,0],[0,0.75,0],[1,0.25,0],[1,0.5,0],[1,0.75,0]];outlineConnect=0;fontColor=#232F3E;fillColor=#ED7100;strokeColor=#ffffff;dashed=0;verticalLabelPosition=bottom;verticalAlign=top;align=center;html=1;fontSize=12;fontStyle=0;aspect=fixed;shape=mxgraph.aws4.resourceIcon;resIcon=mxgraph.aws4.fargate;" vertex="1" parent="SpzhhlRtr5FzsRfU33CU-98">
          <mxGeometry x="630" y="342" width="78" height="78" as="geometry" />
        </mxCell>
        <mxCell id="SpzhhlRtr5FzsRfU33CU-258" value="Route&lt;div&gt;Tables&lt;/div&gt;" style="outlineConnect=0;dashed=0;verticalLabelPosition=bottom;verticalAlign=top;align=center;html=1;shape=mxgraph.aws3.route_table;fillColor=#F58536;gradientColor=none;" vertex="1" parent="SpzhhlRtr5FzsRfU33CU-98">
          <mxGeometry x="910" y="790" width="75" height="69" as="geometry" />
        </mxCell>
        <mxCell id="SpzhhlRtr5FzsRfU33CU-259" value="Route&lt;div&gt;Tables&lt;/div&gt;" style="outlineConnect=0;dashed=0;verticalLabelPosition=bottom;verticalAlign=top;align=center;html=1;shape=mxgraph.aws3.route_table;fillColor=#F58536;gradientColor=none;" vertex="1" parent="SpzhhlRtr5FzsRfU33CU-98">
          <mxGeometry x="910" y="450" width="75" height="69" as="geometry" />
        </mxCell>
        <mxCell id="SpzhhlRtr5FzsRfU33CU-273" value="ECS TASKS&lt;div&gt;IAM ROLES&lt;/div&gt;" style="outlineConnect=0;dashed=0;verticalLabelPosition=bottom;verticalAlign=top;align=center;html=1;shape=mxgraph.aws3.iam;fillColor=#759C3E;gradientColor=none;" vertex="1" parent="SpzhhlRtr5FzsRfU33CU-98">
          <mxGeometry x="1027" y="30" width="42" height="81" as="geometry" />
        </mxCell>
        <mxCell id="SpzhhlRtr5FzsRfU33CU-278" value="ECS TASKS&lt;div&gt;IAM ROLES&lt;/div&gt;" style="outlineConnect=0;dashed=0;verticalLabelPosition=bottom;verticalAlign=top;align=center;html=1;shape=mxgraph.aws3.iam;fillColor=#759C3E;gradientColor=none;" vertex="1" parent="SpzhhlRtr5FzsRfU33CU-98">
          <mxGeometry x="700" y="30" width="42" height="81" as="geometry" />
        </mxCell>
        <mxCell id="SpzhhlRtr5FzsRfU33CU-290" value="Security Group" style="fontStyle=0;verticalAlign=top;align=center;spacingTop=-2;fillColor=none;rounded=0;whiteSpace=wrap;html=1;strokeColor=#FF0000;strokeWidth=2;dashed=1;container=1;collapsible=0;expand=0;recursiveResize=0;" vertex="1" parent="SpzhhlRtr5FzsRfU33CU-98">
          <mxGeometry x="50" y="650" width="130" height="160" as="geometry" />
        </mxCell>
        <mxCell id="SpzhhlRtr5FzsRfU33CU-295" value="EIP&lt;div&gt;&lt;br&gt;&lt;/div&gt;" style="sketch=0;outlineConnect=0;fontColor=#232F3E;gradientColor=none;fillColor=#ED7100;strokeColor=none;dashed=0;verticalLabelPosition=bottom;verticalAlign=top;align=center;html=1;fontSize=12;fontStyle=0;aspect=fixed;pointerEvents=1;shape=mxgraph.aws4.elastic_ip_address;" vertex="1" parent="SpzhhlRtr5FzsRfU33CU-98">
          <mxGeometry x="1000" y="640" width="48" height="20" as="geometry" />
        </mxCell>
        <mxCell id="SpzhhlRtr5FzsRfU33CU-296" value="EIP&lt;div&gt;&lt;br&gt;&lt;/div&gt;" style="sketch=0;outlineConnect=0;fontColor=#232F3E;gradientColor=none;fillColor=#ED7100;strokeColor=none;dashed=0;verticalLabelPosition=bottom;verticalAlign=top;align=center;html=1;fontSize=12;fontStyle=0;aspect=fixed;pointerEvents=1;shape=mxgraph.aws4.elastic_ip_address;" vertex="1" parent="SpzhhlRtr5FzsRfU33CU-98">
          <mxGeometry x="1000" y="1000" width="48" height="20" as="geometry" />
        </mxCell>
        <mxCell id="SpzhhlRtr5FzsRfU33CU-297" value="EIP&lt;div&gt;&lt;br&gt;&lt;/div&gt;" style="sketch=0;outlineConnect=0;fontColor=#232F3E;gradientColor=none;fillColor=#ED7100;strokeColor=none;dashed=0;verticalLabelPosition=bottom;verticalAlign=top;align=center;html=1;fontSize=12;fontStyle=0;aspect=fixed;pointerEvents=1;shape=mxgraph.aws4.elastic_ip_address;" vertex="1" parent="SpzhhlRtr5FzsRfU33CU-98">
          <mxGeometry x="1000" y="310" width="48" height="20" as="geometry" />
        </mxCell>
        <mxCell id="SpzhhlRtr5FzsRfU33CU-298" value="Security Group" style="fontStyle=0;verticalAlign=top;align=center;spacingTop=-2;fillColor=none;rounded=0;whiteSpace=wrap;html=1;strokeColor=#FF0000;strokeWidth=2;dashed=1;container=1;collapsible=0;expand=0;recursiveResize=0;" vertex="1" parent="SpzhhlRtr5FzsRfU33CU-98">
          <mxGeometry x="620" y="320" width="110" height="140" as="geometry" />
        </mxCell>
        <mxCell id="SpzhhlRtr5FzsRfU33CU-300" value="Security Group" style="fontStyle=0;verticalAlign=top;align=center;spacingTop=-2;fillColor=none;rounded=0;whiteSpace=wrap;html=1;strokeColor=#FF0000;strokeWidth=2;dashed=1;container=1;collapsible=0;expand=0;recursiveResize=0;" vertex="1" parent="SpzhhlRtr5FzsRfU33CU-98">
          <mxGeometry x="484" y="280" width="110" height="130" as="geometry" />
        </mxCell>
        <mxCell id="SpzhhlRtr5FzsRfU33CU-303" value="Security Group" style="fontStyle=0;verticalAlign=top;align=center;spacingTop=-2;fillColor=none;rounded=0;whiteSpace=wrap;html=1;strokeColor=#FF0000;strokeWidth=2;dashed=1;container=1;collapsible=0;expand=0;recursiveResize=0;" vertex="1" parent="SpzhhlRtr5FzsRfU33CU-98">
          <mxGeometry x="614" y="670" width="110" height="140" as="geometry" />
        </mxCell>
        <mxCell id="SpzhhlRtr5FzsRfU33CU-304" value="Security Group" style="fontStyle=0;verticalAlign=top;align=center;spacingTop=-2;fillColor=none;rounded=0;whiteSpace=wrap;html=1;strokeColor=#FF0000;strokeWidth=2;dashed=1;container=1;collapsible=0;expand=0;recursiveResize=0;" vertex="1" parent="SpzhhlRtr5FzsRfU33CU-98">
          <mxGeometry x="620" y="1000" width="110" height="140" as="geometry" />
        </mxCell>
        <mxCell id="SpzhhlRtr5FzsRfU33CU-305" value="Security Group" style="fontStyle=0;verticalAlign=top;align=center;spacingTop=-2;fillColor=none;rounded=0;whiteSpace=wrap;html=1;strokeColor=#FF0000;strokeWidth=2;dashed=1;container=1;collapsible=0;expand=0;recursiveResize=0;" vertex="1" parent="SpzhhlRtr5FzsRfU33CU-98">
          <mxGeometry x="484" y="610" width="110" height="130" as="geometry" />
        </mxCell>
        <mxCell id="SpzhhlRtr5FzsRfU33CU-306" value="Security Group" style="fontStyle=0;verticalAlign=top;align=center;spacingTop=-2;fillColor=none;rounded=0;whiteSpace=wrap;html=1;strokeColor=#FF0000;strokeWidth=2;dashed=1;container=1;collapsible=0;expand=0;recursiveResize=0;" vertex="1" parent="SpzhhlRtr5FzsRfU33CU-98">
          <mxGeometry x="484" y="950" width="110" height="130" as="geometry" />
        </mxCell>
        <mxCell id="SpzhhlRtr5FzsRfU33CU-307" value="" style="outlineConnect=0;dashed=0;verticalLabelPosition=bottom;verticalAlign=top;align=center;html=1;shape=mxgraph.aws3.route_table;fillColor=#F58536;gradientColor=none;" vertex="1" parent="SpzhhlRtr5FzsRfU33CU-98">
          <mxGeometry x="860" y="198" width="75" height="69" as="geometry" />
        </mxCell>
        <mxCell id="SpzhhlRtr5FzsRfU33CU-216" value="ECR" style="outlineConnect=0;dashed=0;verticalLabelPosition=bottom;verticalAlign=top;align=center;html=1;shape=mxgraph.aws3.ecr;fillColor=#F58534;gradientColor=none;" vertex="1" parent="1">
          <mxGeometry x="166.5" y="529.5" width="69" height="72" as="geometry" />
        </mxCell>
        <mxCell id="SpzhhlRtr5FzsRfU33CU-218" style="edgeStyle=orthogonalEdgeStyle;rounded=0;orthogonalLoop=1;jettySize=auto;html=1;" edge="1" parent="1" source="SpzhhlRtr5FzsRfU33CU-217" target="SpzhhlRtr5FzsRfU33CU-180">
          <mxGeometry relative="1" as="geometry">
            <Array as="points">
              <mxPoint x="-600" y="1396" />
              <mxPoint x="-600" y="1396" />
            </Array>
          </mxGeometry>
        </mxCell>
        <mxCell id="SpzhhlRtr5FzsRfU33CU-286" style="edgeStyle=orthogonalEdgeStyle;rounded=0;orthogonalLoop=1;jettySize=auto;html=1;" edge="1" parent="1" source="SpzhhlRtr5FzsRfU33CU-217">
          <mxGeometry relative="1" as="geometry">
            <mxPoint x="-691.7499999999995" y="1269.9999999999995" as="targetPoint" />
          </mxGeometry>
        </mxCell>
        <mxCell id="SpzhhlRtr5FzsRfU33CU-217" value="Cloudfront&lt;div&gt;VPC&lt;/div&gt;&lt;div&gt;Origin&lt;/div&gt;" style="outlineConnect=0;dashed=0;verticalLabelPosition=bottom;verticalAlign=top;align=center;html=1;shape=mxgraph.aws3.cloudfront;fillColor=#F58536;gradientColor=none;" vertex="1" parent="1">
          <mxGeometry x="-730" y="1361" width="76.5" height="93" as="geometry" />
        </mxCell>
        <mxCell id="SpzhhlRtr5FzsRfU33CU-227" style="edgeStyle=orthogonalEdgeStyle;rounded=0;orthogonalLoop=1;jettySize=auto;html=1;" edge="1" parent="1" source="SpzhhlRtr5FzsRfU33CU-222">
          <mxGeometry relative="1" as="geometry">
            <mxPoint x="-690" y="1519.9999999999995" as="targetPoint" />
          </mxGeometry>
        </mxCell>
        <mxCell id="SpzhhlRtr5FzsRfU33CU-222" value="AWS&lt;div&gt;WAF&lt;/div&gt;" style="outlineConnect=0;dashed=0;verticalLabelPosition=bottom;verticalAlign=top;align=center;html=1;shape=mxgraph.aws3.waf;fillColor=#759C3E;gradientColor=none;" vertex="1" parent="1">
          <mxGeometry x="-833.5" y="1580" width="76.5" height="93" as="geometry" />
        </mxCell>
        <mxCell id="SpzhhlRtr5FzsRfU33CU-243" value="SQS" style="outlineConnect=0;dashed=0;verticalLabelPosition=bottom;verticalAlign=top;align=center;html=1;shape=mxgraph.aws3.sqs;fillColor=#D9A741;gradientColor=none;" vertex="1" parent="1">
          <mxGeometry x="469.5" y="519" width="76.5" height="93" as="geometry" />
        </mxCell>
        <mxCell id="SpzhhlRtr5FzsRfU33CU-279" value="Mongo&lt;div&gt;DB&lt;/div&gt;" style="dashed=0;outlineConnect=0;html=1;align=center;labelPosition=center;verticalLabelPosition=bottom;verticalAlign=top;shape=mxgraph.weblogos.mongodb" vertex="1" parent="1">
          <mxGeometry x="330" y="500" width="41.2" height="86.2" as="geometry" />
        </mxCell>
        <mxCell id="SpzhhlRtr5FzsRfU33CU-287" style="edgeStyle=orthogonalEdgeStyle;rounded=0;orthogonalLoop=1;jettySize=auto;html=1;" edge="1" parent="1" source="SpzhhlRtr5FzsRfU33CU-283">
          <mxGeometry relative="1" as="geometry">
            <mxPoint x="-910" y="1339.9999999999995" as="targetPoint" />
          </mxGeometry>
        </mxCell>
        <mxCell id="SpzhhlRtr5FzsRfU33CU-283" value="AWS CERTIFICATE&lt;div&gt;MANAGER&lt;/div&gt;" style="outlineConnect=0;dashed=0;verticalLabelPosition=bottom;verticalAlign=top;align=center;html=1;shape=mxgraph.aws3.certificate_manager;fillColor=#759C3E;gradientColor=none;" vertex="1" parent="1">
          <mxGeometry x="-730" y="1150" width="76.5" height="61.5" as="geometry" />
        </mxCell>
        <mxCell id="SpzhhlRtr5FzsRfU33CU-284" value="Route53" style="outlineConnect=0;dashed=0;verticalLabelPosition=bottom;verticalAlign=top;align=center;html=1;shape=mxgraph.aws3.route_53;fillColor=#F58536;gradientColor=none;" vertex="1" parent="1">
          <mxGeometry x="-940" y="1361" width="70.5" height="85.5" as="geometry" />
        </mxCell>
        <mxCell id="SpzhhlRtr5FzsRfU33CU-289" style="edgeStyle=orthogonalEdgeStyle;rounded=0;orthogonalLoop=1;jettySize=auto;html=1;entryX=0.145;entryY=0.145;entryDx=0;entryDy=0;entryPerimeter=0;" edge="1" parent="1" source="SpzhhlRtr5FzsRfU33CU-283" target="SpzhhlRtr5FzsRfU33CU-180">
          <mxGeometry relative="1" as="geometry" />
        </mxCell>
        <mxCell id="SpzhhlRtr5FzsRfU33CU-291" value="" style="rounded=0;whiteSpace=wrap;html=1;fillColor=#e1d5e7;strokeColor=#9673a6;" vertex="1" parent="1">
          <mxGeometry x="-910" y="720" width="140" height="350" as="geometry" />
        </mxCell>
        <mxCell id="SpzhhlRtr5FzsRfU33CU-292" value="Terraform State&lt;div&gt;File&lt;/div&gt;" style="sketch=0;points=[[0,0,0],[0.25,0,0],[0.5,0,0],[0.75,0,0],[1,0,0],[0,1,0],[0.25,1,0],[0.5,1,0],[0.75,1,0],[1,1,0],[0,0.25,0],[0,0.5,0],[0,0.75,0],[1,0.25,0],[1,0.5,0],[1,0.75,0]];outlineConnect=0;fontColor=#232F3E;fillColor=#7AA116;strokeColor=#ffffff;dashed=0;verticalLabelPosition=bottom;verticalAlign=top;align=center;html=1;fontSize=12;fontStyle=0;aspect=fixed;shape=mxgraph.aws4.resourceIcon;resIcon=mxgraph.aws4.s3;" vertex="1" parent="1">
          <mxGeometry x="-879" y="800" width="78" height="78" as="geometry" />
        </mxCell>
        <mxCell id="SpzhhlRtr5FzsRfU33CU-293" value="Dynamo DB&lt;div&gt;State Lock&lt;/div&gt;" style="outlineConnect=0;dashed=0;verticalLabelPosition=bottom;verticalAlign=top;align=center;html=1;shape=mxgraph.aws3.dynamo_db;fillColor=#2E73B8;gradientColor=none;" vertex="1" parent="1">
          <mxGeometry x="-877" y="930" width="72" height="81" as="geometry" />
        </mxCell>
        <mxCell id="SpzhhlRtr5FzsRfU33CU-294" value="Terraform&lt;div&gt;Remote&lt;/div&gt;&lt;div&gt;Backend&lt;/div&gt;" style="rounded=0;whiteSpace=wrap;html=1;fillColor=#e1d5e7;strokeColor=#9673a6;" vertex="1" parent="1">
          <mxGeometry x="-901" y="680" width="120" height="60" as="geometry" />
        </mxCell>
      </root>
    </mxGraphModel>
  </diagram>
</mxfile>
